<?xml version="1.0" encoding="UTF-8" standalone="no"?>
<!-- Created with Inkscape (http://www.inkscape.org/) -->

<svg
   xmlns:dc="http://purl.org/dc/elements/1.1/"
   xmlns:cc="http://creativecommons.org/ns#"
   xmlns:rdf="http://www.w3.org/1999/02/22-rdf-syntax-ns#"
   xmlns:svg="http://www.w3.org/2000/svg"
   xmlns="http://www.w3.org/2000/svg"
   xmlns:sodipodi="http://sodipodi.sourceforge.net/DTD/sodipodi-0.dtd"
   xmlns:inkscape="http://www.inkscape.org/namespaces/inkscape"
   width="32"
   height="32"
   viewBox="0 0 8.4666665 8.4666669"
   version="1.1"
   id="svg3686"
   inkscape:version="0.92.1 r"
   sodipodi:docname="workspace-symbolic.svg">
  <defs
     id="defs3680" />
  <sodipodi:namedview
     id="base"
     pagecolor="#ffffff"
     bordercolor="#666666"
     borderopacity="1.0"
     inkscape:pageopacity="0.0"
     inkscape:pageshadow="2"
     inkscape:zoom="11.313709"
     inkscape:cx="21.693097"
     inkscape:cy="6.5105031"
     inkscape:document-units="px"
     inkscape:current-layer="layer1"
     showgrid="false"
     units="px"
     inkscape:pagecheckerboard="true"
     inkscape:window-width="1920"
     inkscape:window-height="1014"
     inkscape:window-x="1920"
     inkscape:window-y="0"
     inkscape:window-maximized="1"
     inkscape:snap-bbox="false" />
  <metadata
     id="metadata3683">
    <rdf:RDF>
      <cc:Work
         rdf:about="">
        <dc:format>image/svg+xml</dc:format>
        <dc:type
           rdf:resource="http://purl.org/dc/dcmitype/StillImage" />
        <dc:title />
      </cc:Work>
    </rdf:RDF>
  </metadata>
  <g
     inkscape:label="Layer 1"
     inkscape:groupmode="layer"
     id="layer1"
     transform="translate(0,-288.53332)">
    <path
       style="fill:#bebebe;fill-opacity:1;stroke-width:0.26458335"
       d="m 0,294.75103 v -1.45521 h 1.852084 1.852083 v 1.45521 1.45521 H 1.852084 0 Z m 2.910417,0 v -0.66146 H 1.852084 0.79375 v 0.66146 0.66146 h 1.058334 1.058333 z m 1.852084,0 v -1.45521 h 1.852083 1.852084 v 1.45521 1.45521 H 6.614584 4.762501 Z m 2.910417,0 v -0.66146 H 6.614584 5.556251 v 0.66146 0.66146 H 6.614584 7.672918 Z M 0,290.78228 v -1.45521 h 1.852084 1.852083 v 1.45521 1.45521 H 1.852084 0 Z m 2.910417,0 v -0.66146 H 1.852084 0.79375 v 0.66146 0.66146 h 1.058334 1.058333 z m 1.852084,0 v -1.45521 h 1.852083 1.852084 v 1.45521 1.45521 H 6.614584 4.762501 Z m 2.910417,0 v -0.66146 H 6.614584 5.556251 v 0.66146 0.66146 h 1.058333 1.058334 z"
       id="path4583"
       inkscape:connector-curvature="0" />
  </g>
</svg>
