<?xml version="1.0" encoding="UTF-8" standalone="no"?>
<!-- Created with Inkscape (http://www.inkscape.org/) -->

<svg
   xmlns:dc="http://purl.org/dc/elements/1.1/"
   xmlns:cc="http://creativecommons.org/ns#"
   xmlns:rdf="http://www.w3.org/1999/02/22-rdf-syntax-ns#"
   xmlns:svg="http://www.w3.org/2000/svg"
   xmlns="http://www.w3.org/2000/svg"
   xmlns:sodipodi="http://sodipodi.sourceforge.net/DTD/sodipodi-0.dtd"
   xmlns:inkscape="http://www.inkscape.org/namespaces/inkscape"
   width="32"
   height="32"
   viewBox="0 0 8.4666665 8.4666669"
   version="1.1"
   id="svg3686"
   inkscape:version="0.92.1 r"
   sodipodi:docname="workspace-symbolic.svg">
  <defs
     id="defs3680" />
  <sodipodi:namedview
     id="base"
     pagecolor="#ffffff"
     bordercolor="#666666"
     borderopacity="1.0"
     inkscape:pageopacity="0.0"
     inkscape:pageshadow="2"
     inkscape:zoom="5.6"
     inkscape:cx="7.574127"
     inkscape:cy="-4.5948048"
     inkscape:document-units="px"
     inkscape:current-layer="layer1"
     showgrid="false"
     units="px"
     inkscape:pagecheckerboard="true"
     inkscape:window-width="1920"
     inkscape:window-height="1014"
     inkscape:window-x="1920"
     inkscape:window-y="0"
     inkscape:window-maximized="1" />
  <metadata
     id="metadata3683">
    <rdf:RDF>
      <cc:Work
         rdf:about="">
        <dc:format>image/svg+xml</dc:format>
        <dc:type
           rdf:resource="http://purl.org/dc/dcmitype/StillImage" />
        <dc:title></dc:title>
      </cc:Work>
    </rdf:RDF>
  </metadata>
  <g
     inkscape:label="Layer 1"
     inkscape:groupmode="layer"
     id="layer1"
     transform="translate(0,-288.53332)">
    <path
       style="fill:#bebebe;fill-opacity:1;stroke-width:0.06614583"
       d="m 0,296.33852 c 0,-0.30868 0.0294,-0.42627 0.132292,-0.52916 0.125508,-0.12551 0.220486,-0.13229 1.852083,-0.13229 1.719792,0 1.719792,0 1.719792,-0.52917 0,-0.52917 0,-0.52917 -1.719792,-0.52917 -1.631597,0 -1.726575,-0.007 -1.852083,-0.13229 C 0.00441,294.35856 0,294.26595 0,291.70832 c 0,-2.55764 0.0044,-2.65025 0.132292,-2.77813 0.129352,-0.12935 0.220486,-0.13229 4.101042,-0.13229 3.880555,0 3.971689,0.003 4.101041,0.13229 0.127882,0.12788 0.132292,0.22049 0.132292,2.77813 0,2.55763 -0.0044,2.65024 -0.132292,2.77812 -0.125507,0.12551 -0.220486,0.13229 -1.852083,0.13229 -1.719792,0 -1.719792,0 -1.719792,0.52917 0,0.52917 0,0.52917 1.719792,0.52917 1.631597,0 1.726576,0.007 1.852083,0.13229 0.102894,0.10289 0.132292,0.22048 0.132292,0.52916 0,0.39688 0,0.39688 -4.233333,0.39688 C 0,296.7354 0,296.7354 0,296.33852 Z m 7.17983,-2.94048 c 0.162358,-0.16236 0.162358,-0.16236 0.162358,-1.68972 0,-1.52737 0,-1.52737 -0.162358,-1.68973 -0.162358,-0.16236 -0.162358,-0.16236 -2.979569,-0.16236 -2.817212,0 -2.817212,0 -2.979569,0.16236 -0.162358,0.16236 -0.162358,0.16236 -0.162358,1.68973 0,1.52736 0,1.52736 0.162358,1.68972 0.162357,0.16236 0.162357,0.16236 2.979569,0.16236 2.817211,0 2.817211,0 2.979569,-0.16236 z"
       id="path4621"
       inkscape:connector-curvature="0" />
  </g>
</svg>
