<?xml version="1.0" encoding="UTF-8" standalone="no"?>
<svg
   xmlns:dc="http://purl.org/dc/elements/1.1/"
   xmlns:cc="http://creativecommons.org/ns#"
   xmlns:rdf="http://www.w3.org/1999/02/22-rdf-syntax-ns#"
   xmlns:svg="http://www.w3.org/2000/svg"
   xmlns="http://www.w3.org/2000/svg"
   id="svg8"
   version="1.1"
   viewBox="0 0 8.4666665 8.4666669"
   height="32"
   width="32">
  <defs
     id="defs2" />
  <metadata
     id="metadata5">
    <rdf:RDF>
      <cc:Work
         rdf:about="">
        <dc:format>image/svg+xml</dc:format>
        <dc:type
           rdf:resource="http://purl.org/dc/dcmitype/StillImage" />
        <dc:title></dc:title>
        <cc:license
           rdf:resource="" />
      </cc:Work>
    </rdf:RDF>
  </metadata>
  <g
     transform="translate(0,-288.53332)"
     id="layer1">
    <path
       id="path945"
       d="M 0.131268,296.02205 C 0.003608,295.89439 0,295.80327 0,292.70751 c 0,-3.09575 0.0036,-3.18687 0.131268,-3.31453 0.128376,-0.12837 0.218781,-0.13127 4.102144,-0.13127 3.883363,0 3.973769,0.003 4.102144,0.13127 0.12766,0.12766 0.131268,0.21878 0.131268,3.31453 0,3.09576 -0.0036,3.18688 -0.131268,3.31454 -0.128375,0.12837 -0.218781,0.13127 -4.102144,0.13127 -3.883363,0 -3.973768,-0.003 -4.102144,-0.13127 z m 7.141012,-1.71962 c 0.05735,-0.0573 0.07876,-0.55783 0.07876,-1.84075 0,-1.76198 0,-1.76198 -0.161102,-1.92308 -0.161102,-0.1611 -0.161102,-0.1611 -2.989344,-0.1611 -2.828242,0 -2.828242,0 -2.989344,0.1611 -0.161103,0.1611 -0.161103,0.1611 -0.161103,1.92308 0,1.28292 0.02142,1.7834 0.07876,1.84075 0.05895,0.0589 0.831367,0.0788 3.071685,0.0788 2.240317,0 3.012729,-0.0198 3.071685,-0.0788 z"
       style="fill:#bebebe;fill-opacity:1;stroke-width:0.0656343" />
  </g>
</svg>
